<svg xmlns="http://www.w3.org/2000/svg" width="38.023" height="38.023" viewBox="0 0 38.023 38.023" fill="#fff">
  <g id="noun_canned_food_3404285" data-name="noun_canned food_3404285" transform="translate(-1 -1)" >
    <g id="Group_392" data-name="Group 392" transform="translate(1 1)">
      <path id="Path_71" data-name="Path 71" d="M38.41,20.625H37.018a11.662,11.662,0,0,0-.273-11.531l-.262-.437a.613.613,0,0,0-.526-.3H30.437v-.5a3.68,3.68,0,1,0-3.68,0v.5H21.238a.613.613,0,0,0-.526.3l-.262.437a11.662,11.662,0,0,0-.273,11.531H19.4a8,8,0,1,0-1.227,4.229V32.89H5.906v1.227H18.172v1.227H2.227V8.359H19.4V7.133H2.227V5.906h18.4V7.133h1.227V5.293a.613.613,0,0,0-.613-.613H1.613A.613.613,0,0,0,1,5.293V35.957a.613.613,0,0,0,.613.613H18.172v1.84a.613.613,0,0,0,.613.613H38.41a.613.613,0,0,0,.613-.613V21.238A.613.613,0,0,0,38.41,20.625ZM11.426,27.371a6.746,6.746,0,1,1,6.746-6.746A6.754,6.754,0,0,1,11.426,27.371ZM27.371,9.586H34.68a7.624,7.624,0,0,1-5.6,2.453h-.968a7.625,7.625,0,0,1-5.6-2.453Zm.246-2.66a2.453,2.453,0,1,1,1.961,0,.613.613,0,0,0-.367.562v.872H27.984V7.487A.613.613,0,0,0,27.617,6.925ZM21.5,20.485a10.434,10.434,0,0,1-.194-10.41,8.85,8.85,0,0,0,6.806,3.19h.968a8.85,8.85,0,0,0,6.806-3.19,10.434,10.434,0,0,1-.194,10.41l-.083.14H21.585ZM37.8,37.8H19.4V21.851H37.8Z" transform="translate(-1 -1)"/>
      <path id="Path_72" data-name="Path 72" d="M34.1,48.842l3.1-1.549c.862,1.1,3.42,1.613,5.828,1.613,2.954,0,6.133-.768,6.133-2.453S45.979,44,43.026,44c-2.408,0-4.966.511-5.828,1.613l-3.1-1.549-.549,1.1,2.583,1.292-2.583,1.291Zm13.831-2.389c0,.21-.751.682-2.2.976l-.044-.088a1.982,1.982,0,0,1,0-1.775l.044-.088C47.181,45.771,47.932,46.243,47.932,46.453Zm-4.906-1.227c.524,0,1,.026,1.447.068a3.158,3.158,0,0,0,0,2.317c-.443.042-.922.068-1.447.068-3.219,0-4.906-.911-4.906-1.227S39.807,45.227,43.026,45.227Z" transform="translate(-13.589 -17.629)"/>
      <rect id="Rectangle_81" data-name="Rectangle 81" width="2" height="2" transform="translate(34.023 34.023)"/>
      <rect id="Rectangle_82" data-name="Rectangle 82" width="13" height="2" transform="translate(20.023 34.023)"/>
      <rect id="Rectangle_83" data-name="Rectangle 83" width="2" height="1" transform="translate(2.023 32.023)"/>
      <path id="Path_73" data-name="Path 73" d="M15.573,30c-.412,0-3.448.037-4.525,1.038L9.1,30.064l-.549,1.1,1.357.678-1.356.678.549,1.1,1.947-.973c1.076,1,4.113,1.038,4.525,1.038.5,0,4.906-.052,4.906-1.84S16.074,30,15.573,30Zm0,2.453A7.992,7.992,0,0,1,12,31.84a7.992,7.992,0,0,1,3.575-.613,7.992,7.992,0,0,1,3.575.613A7.992,7.992,0,0,1,15.573,32.453Z" transform="translate(-3.921 -12.215)"/>
    </g>
  </g>
</svg>
