<svg id="noun_Food_2483050" xmlns="http://www.w3.org/2000/svg" width="33.656" height="33.656" viewBox="0 0 33.656 33.656">
  <g id="_09_Food" data-name="09 Food" transform="translate(0)" fill="#fff">
    <path id="Path_60" data-name="Path 60" d="M32.6,18.932H31.458a6.318,6.318,0,0,0-3.33-4.554l3.117-3.117c2.771-2.771,3.164-5.686,1.052-7.8L31.064,2.231a5.27,5.27,0,0,0-7.437,0L19.278,6.58a6.311,6.311,0,0,0-5.605-3.425,6.244,6.244,0,0,0-2.1.375V1.052a1.052,1.052,0,0,0-2.1,0V3.53a6.244,6.244,0,0,0-2.1-.375A6.317,6.317,0,0,0,1.052,9.466a16.42,16.42,0,0,0,3.705,9.466H1.052A1.052,1.052,0,0,0,0,19.983V32.6a1.052,1.052,0,0,0,1.052,1.052H32.6A1.052,1.052,0,0,0,33.656,32.6V19.983A1.052,1.052,0,0,0,32.6,18.932Zm-11.4-.119c.013-.045.026-.09.041-.136.027-.083.057-.163.089-.243.016-.039.03-.079.047-.117q.065-.151.143-.3c.008-.016.015-.032.023-.047.06-.111.127-.218.2-.323.02-.03.043-.058.063-.088.053-.074.105-.146.161-.216.029-.035.059-.069.089-.105q.079-.092.163-.179c.033-.034.066-.068.1-.1.059-.057.119-.111.181-.164.034-.029.067-.059.105-.088.072-.058.147-.113.222-.166.027-.019.053-.04.081-.058.105-.07.21-.136.322-.2l.073-.036c.088-.046.177-.09.269-.129.04-.018.083-.033.124-.05.077-.031.158-.06.236-.086l.14-.043c.079-.023.158-.043.239-.062l.143-.031c.087-.016.175-.029.263-.04.043,0,.084-.012.127-.016.132-.013.263-.021.4-.021a4.165,4.165,0,0,1,.768.074h.011a4.22,4.22,0,0,1,3.293,3.082H21.173C21.184,18.892,21.193,18.852,21.2,18.812Zm-1.25-9.934,5.16-5.16a3.168,3.168,0,0,1,4.463,0l1.232,1.232a2.144,2.144,0,0,1,.61,2.294,6.357,6.357,0,0,1-1.662,2.529L25.829,13.7c-.2-.019-.394-.029-.587-.029s-.411.012-.614.031c-.067.006-.132.019-.2.027-.134.017-.268.035-.4.061-.077.015-.151.035-.227.053-.118.027-.236.056-.351.09-.078.024-.158.05-.232.076-.109.037-.218.076-.324.119q-.115.046-.228.1c-.105.047-.206.1-.307.148-.072.037-.144.076-.215.116-.1.057-.2.117-.294.179-.066.043-.133.084-.2.129-.1.068-.193.141-.288.215-.058.045-.117.088-.172.135-.105.088-.2.18-.3.275-.041.038-.084.075-.123.114q-.2.205-.388.426c-.023.027-.042.057-.065.085-.1.123-.193.248-.282.378-.038.056-.073.115-.109.172-.067.105-.134.21-.2.322-.037.067-.071.136-.105.2-.053.105-.105.21-.154.316-.033.074-.062.149-.092.224-.043.105-.083.216-.119.326-.026.078-.053.158-.074.236-.033.112-.061.226-.088.34-.018.08-.036.158-.053.241-.008.04-.019.08-.026.12H16.28l.017-.021q.18-.21.355-.433l.087-.115c.088-.116.176-.233.263-.354l.105-.153q.129-.187.253-.381c.025-.04.053-.078.077-.119.105-.168.21-.34.31-.514.023-.039.044-.079.067-.118q.118-.21.231-.421c.03-.057.06-.115.09-.172.071-.138.141-.278.21-.421.023-.047.046-.094.069-.142q.132-.279.255-.563c.015-.036.029-.072.045-.105q.1-.232.191-.468.036-.09.069-.18L19,14.177l.238.238a1.052,1.052,0,1,0,1.487-1.487l-1.04-1.037c.009-.045.02-.089.029-.134.039-.186.076-.372.105-.554,0-.016,0-.032.007-.049q.042-.249.072-.491c.007-.053.013-.109.018-.163q.022-.192.035-.38c0-.053.008-.105.011-.155.01-.17.016-.337.016-.5A5.528,5.528,0,0,0,19.954,8.878Zm-16.8.587A4.212,4.212,0,0,1,7.362,5.259a4.163,4.163,0,0,1,2.524.848c.005,0,.012,0,.017.008a1.052,1.052,0,0,0,.263.138l.058.018a1.041,1.041,0,0,0,.293.047h0a1.034,1.034,0,0,0,.293-.047l.058-.018a1.059,1.059,0,0,0,.263-.138c.005,0,.012,0,.017-.008a4.162,4.162,0,0,1,2.524-.848,4.211,4.211,0,0,1,4.132,3.433v0c.024.133.042.263.053.387s.022.253.022.382c0,4.086-3.308,9.466-5.259,9.466a2.109,2.109,0,0,1-1.309-.7,1.054,1.054,0,0,0-.789-.36h-.006a1.06,1.06,0,0,0-.789.354,2.116,2.116,0,0,1-1.315.7C6.463,18.932,3.155,13.552,3.155,9.466ZM2.1,31.553V30.5H6.311a1.052,1.052,0,0,0,0-2.1H2.1V25.242h9.466a1.052,1.052,0,0,0,0-2.1H2.1v-2.1H31.553v2.1H27.346a1.052,1.052,0,0,0,0,2.1h4.207v2.1H22.087a1.052,1.052,0,0,0,0,2.1h9.466v2.1Z" transform="translate(0)"/>
    <path id="Path_61" data-name="Path 61" d="M47.36,12.847a1.052,1.052,0,1,0,1.487-1.487L47.8,10.308A1.052,1.052,0,1,0,46.308,11.8Z" transform="translate(-21.81 -4.741)"/>
    <path id="Path_62" data-name="Path 62" d="M41.36,18.847a1.052,1.052,0,1,0,1.487-1.487L41.8,16.308A1.052,1.052,0,1,0,40.308,17.8Z" transform="translate(-18.965 -7.586)"/>
  </g>
</svg>
