<svg xmlns="http://www.w3.org/2000/svg" width="20.634" height="33.705" viewBox="0 0 20.634 33.705" fill="#fff">
  <g id="noun_Milk_2717914" transform="translate(-22.834 -5.625)">
    <path id="Path_63" data-name="Path 63" d="M43.008,13.258l-1.894-3.245a1.7,1.7,0,0,0-.3-.376V7.714a2.091,2.091,0,0,0-2.089-2.089H27.581a2.091,2.091,0,0,0-2.089,2.089V9.637a1.684,1.684,0,0,0-.3.377l-1.894,3.245a3.866,3.866,0,0,0-.46,1.7V38a1.331,1.331,0,0,0,1.329,1.329H42.139A1.331,1.331,0,0,0,43.468,38V14.961A3.871,3.871,0,0,0,43.008,13.258ZM26.632,7.714a.95.95,0,0,1,.949-.949h11.14a.95.95,0,0,1,.949.949V9.09a1.546,1.546,0,0,0-.191-.015H26.822a1.545,1.545,0,0,0-.19.015Zm-.46,2.874a.916.916,0,0,1,.65-.373H39.48a.918.918,0,0,1,.651.373l1.894,3.245A1.529,1.529,0,0,1,42.1,14H24.2a1.565,1.565,0,0,1,.079-.163Zm15.967,27.6H24.163a.192.192,0,0,1-.19-.19V15.135H42.329V38A.192.192,0,0,1,42.139,38.191Z"/>
    <path id="Path_64" data-name="Path 64" d="M45.65,47.42a4.493,4.493,0,0,0-1.57-2.075,2.22,2.22,0,0,0-1.15-.276l-.006-.011a2.5,2.5,0,0,0,.542-1.529,2.576,2.576,0,0,0-.719-1.737.569.569,0,0,0-.843.765,1.441,1.441,0,0,1,.423.972,1.3,1.3,0,0,1-.174.635,5.324,5.324,0,0,0-3.25-.989,5.237,5.237,0,0,0-3.356,1.074,1.328,1.328,0,0,1-.226-.72,1.445,1.445,0,0,1,.423-.972.57.57,0,0,0-.844-.765,2.578,2.578,0,0,0-.719,1.737,2.5,2.5,0,0,0,.556,1.55,2.175,2.175,0,0,0-1.238.265,4.5,4.5,0,0,0-1.57,2.075.57.57,0,0,0,.4.764,6.251,6.251,0,0,0,1.344.159,2.791,2.791,0,0,0,1.257-.248c.036-.019.066-.04.1-.06a14.5,14.5,0,0,0,1.016,2.483,1.921,1.921,0,0,0-.394,1.152,2.136,2.136,0,0,0,2.02,2.177,2.9,2.9,0,0,0,.716-.114,1.546,1.546,0,0,1,1.038,0,2.9,2.9,0,0,0,.715.114,2.136,2.136,0,0,0,2.02-2.177,1.916,1.916,0,0,0-.395-1.152,14.463,14.463,0,0,0,.987-2.384,2.925,2.925,0,0,0,1.162.209,6.237,6.237,0,0,0,1.343-.159.571.571,0,0,0,.4-.764ZM38.9,44.315a3.909,3.909,0,0,1,2.842,1.027.424.424,0,0,0,.047.073.406.406,0,0,0,.031.026,1.036,1.036,0,0,1,.218.606,11.508,11.508,0,0,1-1.171,3.718,4.312,4.312,0,0,0-3.934,0,11.511,11.511,0,0,1-1.171-3.718C35.765,45.124,37.232,44.315,38.9,44.315Zm-4.5,2.768a2.277,2.277,0,0,1-1.09.1,2.293,2.293,0,0,1,.712-.831,1.008,1.008,0,0,1,.608-.138,5.332,5.332,0,0,0,.093.638A1.36,1.36,0,0,1,34.4,47.083Zm5.735,5.625a2.04,2.04,0,0,1-.438-.08,2.618,2.618,0,0,0-1.591,0,2.054,2.054,0,0,1-.439.08c-.586,0-.88-.665-.88-1.038a.9.9,0,0,1,.332-.646h0a2.967,2.967,0,0,1,3.563,0l0,0a.9.9,0,0,1,.332.645C41.018,52.042,40.724,52.708,40.137,52.708Zm3.04-5.625c-.047-.024-.086-.051-.128-.077a5.969,5.969,0,0,0,.123-.784,1.362,1.362,0,0,1,.382.135,2.3,2.3,0,0,1,.713.831A2.266,2.266,0,0,1,43.177,47.082Z" transform="translate(-5.615 -22.316)"/>
    <path id="Path_65" data-name="Path 65" d="M53.836,54.54a.568.568,0,0,0,.733-.333l.11-.292a.57.57,0,1,0-1.067-.4l-.11.292A.57.57,0,0,0,53.836,54.54Z" transform="translate(-18.998 -29.473)"/>
    <path id="Path_66" data-name="Path 66" d="M44.07,54.207a.569.569,0,0,0,.533.37.555.555,0,0,0,.2-.036.57.57,0,0,0,.334-.733l-.109-.292a.57.57,0,0,0-1.068.4Z" transform="translate(-13.08 -29.473)"/>
  </g>
</svg>
