<svg xmlns="http://www.w3.org/2000/svg" width="18.549" height="22.606" viewBox="0 0 18.549 22.606" fill="#fff"> 
  <path id="Icon_material-notifications-none" data-name="Icon material-notifications-none" d="M15.274,26.356a2.325,2.325,0,0,0,2.319-2.319H12.956A2.325,2.325,0,0,0,15.274,26.356ZM22.23,19.4V13.6c0-3.559-1.89-6.538-5.217-7.327V5.489a1.739,1.739,0,0,0-3.478,0v.788c-3.316.788-5.217,3.756-5.217,7.327v5.8L6,21.719v1.159H24.549V21.719ZM19.912,20.56H10.637V13.6c0-2.875,1.751-5.217,4.637-5.217s4.637,2.342,4.637,5.217Z" transform="translate(-6 -3.75)" />
</svg>
