<svg xmlns="http://www.w3.org/2000/svg" width="28.505" height="27.345" viewBox="0 0 28.505 27.345" fil="#646464">
  <g id="Icon_feather-shopping-cart" data-name="Icon feather-shopping-cart" transform="translate(1.5 1.5)">
    <path id="Path_8" data-name="Path 8" d="M14.319,31.159A1.159,1.159,0,1,1,13.159,30,1.159,1.159,0,0,1,14.319,31.159Z" transform="translate(-3.885 -7.973)" fill="none" stroke="#646464" stroke-linecap="round" stroke-linejoin="round" stroke-width="2"/>
    <path id="Path_9" data-name="Path 9" d="M30.819,31.159A1.159,1.159,0,1,1,29.659,30,1.159,1.159,0,0,1,30.819,31.159Z" transform="translate(-7.633 -7.973)" fill="none" stroke="#646464" stroke-linecap="round" stroke-linejoin="round" stroke-width="2"/>
    <path id="Path_10" data-name="Path 10" d="M1.5,1.5H6.137L9.244,17.023a2.319,2.319,0,0,0,2.319,1.866H22.831a2.319,2.319,0,0,0,2.319-1.866L27,7.3H7.3" transform="translate(-1.5 -1.5)" fill="none" stroke="#646464" stroke-linecap="round" stroke-linejoin="round" stroke-width="2"/>
  </g>
</svg>
