<svg xmlns="http://www.w3.org/2000/svg" width="26.01" height="36.964" viewBox="0 0 26.01 36.964" >
  <g id="noun_Silverware_209566" transform="translate(-21.189 -9.519)" fill="#fff">
    <path id="Path_67" data-name="Path 67" d="M27.049,46.483a3.209,3.209,0,0,1-3.155-3.393V26.173a5.151,5.151,0,0,1-2.7-4.571V10.42a.9.9,0,0,1,.9-.9h0a.9.9,0,0,1,.9.9V21.6a3.446,3.446,0,0,0,2.183,3.206l.522.243V43.09a1.37,1.37,0,1,0,2.7,0V25.05l.522-.243A3.446,3.446,0,0,0,31.106,21.6V10.42a.9.9,0,0,1,.9-.9h0a.9.9,0,0,1,.9.9V21.6a5.151,5.151,0,0,1-2.7,4.571V43.09A3.209,3.209,0,0,1,27.049,46.483Z"/>
    <path id="Path_68" data-name="Path 68" d="M29.9,21.239h0a.9.9,0,0,1-.9-.9V10.42a.9.9,0,0,1,.9-.9h0a.9.9,0,0,1,.9.9v9.917A.9.9,0,0,1,29.9,21.239Z" transform="translate(-4.199 0)"/>
    <path id="Path_69" data-name="Path 69" d="M35.749,21.239h0a.9.9,0,0,1-.9-.9V10.42a.9.9,0,0,1,.9-.9h0a.9.9,0,0,1,.9.9v9.917A.9.9,0,0,1,35.749,21.239Z" transform="translate(-7.348 0)"/>
    <path id="Path_70" data-name="Path 70" d="M57.379,46.5a3.047,3.047,0,0,1-3.02-3.155V15.171a5.626,5.626,0,0,1,2.674-4.865h0a5.115,5.115,0,0,1,5.31-.03,5.214,5.214,0,0,1,2.7,4.468V27.012a5.121,5.121,0,0,1-4.508,5.1V43.343A3.159,3.159,0,0,1,57.379,46.5Zm.571-34.639a3.815,3.815,0,0,0-1.788,3.312V43.343A1.245,1.245,0,0,0,57.379,44.7a1.354,1.354,0,0,0,1.352-1.352V30.416l.877-.024a3.428,3.428,0,0,0,3.631-3.379V14.743a3.408,3.408,0,0,0-1.79-2.9,3.338,3.338,0,0,0-3.5.018Z" transform="translate(-17.844 -0.015)"/>
  </g>
</svg>
