<svg id="noun_spice_3353799" xmlns="http://www.w3.org/2000/svg" width="35.844" height="35.175" viewBox="0 0 35.844 35.175" fill="#fff"> 
  <g id="Group_394" data-name="Group 394">
    <g id="Group_393" data-name="Group 393">
      <path id="Path_74" data-name="Path 74" d="M191.534,203.582h-10.2a5.33,5.33,0,0,1-5.263-6.167l2.231-14.024A6.4,6.4,0,0,1,184.614,178h3.693a6.4,6.4,0,0,1,6.316,5.391l.894,5.623a6.381,6.381,0,0,1,4.019-1.42h3.693a6.4,6.4,0,0,1,6.316,5.391l2.231,14.024a5.329,5.329,0,0,1-5.263,6.167H196.252a5.33,5.33,0,0,1-5.263-6.167Zm1.429-17.054-.446-2.8a4.263,4.263,0,0,0-4.21-3.594h-3.693a4.264,4.264,0,0,0-4.211,3.594l-.446,2.8Zm-13.346,2.132-1.446,9.091a3.2,3.2,0,0,0,3.158,3.7H191.59q.143,0,.285-.013l1.345-8.453a6.387,6.387,0,0,1,.5-1.668l-.423-2.657Zm28.268,7.461-.446-2.8a4.263,4.263,0,0,0-4.21-3.594h-3.693a4.263,4.263,0,0,0-4.211,3.594l-.446,2.8Zm-13.346,2.132-1.446,9.091a3.2,3.2,0,0,0,3.158,3.7h10.261a3.2,3.2,0,0,0,3.158-3.7l-1.446-9.091Z" transform="translate(-176 -178)"/>
    </g>
  </g>
</svg>
